<?xml version="1.0" encoding="iso-8859-1" standalone="no"?> 
<?xml-stylesheet href="node_links.css" type="text/css"?> 
<svg xmlns="http://www.w3.org/2000/svg" xmlns:xlink="http://www.w3.org/1999/xlink" width="316.50009pt" height="69.00009pt" viewBox="344.24995 -195.75005 316.50009 69.00009 "> 
<g transform="translate(0, -126.74995 ) scale(1,-1) translate(0,195.75005 )"> 
<g>
 <g stroke="rgb(0.0%,0.0%,0.0%)">
 <g fill="rgb(0.0%,0.0%,0.0%)">
 <g stroke-width="0.4pt">
 <g>
 <g stroke="rgb(0.0%,0.0%,0.0%)">
 <g fill="rgb(100.0%,100.0%,100.0%)">
 <g fill="rgb(100.0%,100.0%,100.0%)">
 <path d=" M  525.0 -172.5 C  525.0 -184.92656 514.92656 -195.0 502.5 -195.0 C  490.07344 -195.0 480.0 -184.92656 480.0 -172.5 C  480.0 -160.07344 490.07344 -150.0 502.5 -150.0 C  514.92656 -150.0 525.0 -160.07344 525.0 -172.5 Z M  502.5 -172.5  " style="stroke:none"/>
 <g stroke-width="1.50009pt">
 <g stroke-dasharray="none" stroke-dashoffset="0.0pt">
 <g stroke-dasharray="none" stroke-dashoffset="0.0pt">
 <g stroke="rgb(0.0%,0.0%,0.0%)">
 <path d=" M  525.0 -172.5 C  525.0 -184.92656 514.92656 -195.0 502.5 -195.0 C  490.07344 -195.0 480.0 -184.92656 480.0 -172.5 C  480.0 -160.07344 490.07344 -150.0 502.5 -150.0 C  514.92656 -150.0 525.0 -160.07344 525.0 -172.5 Z M  502.5 -172.5  " style="fill:none"/>
 <g stroke-width="1.50009pt">
 <g stroke-dasharray="none" stroke-dashoffset="0.0pt">
 <g stroke-dasharray="none" stroke-dashoffset="0.0pt">
 <g stroke-linecap="butt">
 <g fill="rgb(0.0%,0.0%,0.0%)">
 <g stroke="rgb(0.0%,0.0%,0.0%)">
 <path d=" M  435.0 -150.0 L  474.20291 -163.06764  " style="fill:none"/>
 <g>
 <g transform="matrix(0.94963,-0.31654,0.31654,0.94963,474.20291,-163.06764)">
 <g>
 <path d=" M  6.57024 0.0 C  4.62346 0.365 1.46005 1.46005 -0.73003 2.7376 L  -0.73003 -2.7376 C  1.46005 -1.46005 4.62346 -0.365 6.57024 0.0  " style="stroke:none"/>
 </g>
  </g>
 </g>
 <g stroke-width="1.50009pt">
 <g stroke-dasharray="none" stroke-dashoffset="0.0pt">
 <g stroke-dasharray="none" stroke-dashoffset="0.0pt">
 <g stroke-linecap="butt">
 <g fill="rgb(0.0%,0.0%,0.0%)">
 <g stroke="rgb(0.0%,0.0%,0.0%)">
 <path d=" M  457.5 -172.5 L  472.6772 -172.5  " style="fill:none"/>
 <g>
 <g transform="matrix(1.0,0.0,0.0,1.0,472.6772,-172.5)">
 <g>
 <path d=" M  6.57024 0.0 C  4.62346 0.365 1.46005 1.46005 -0.73003 2.7376 L  -0.73003 -2.7376 C  1.46005 -1.46005 4.62346 -0.365 6.57024 0.0  " style="stroke:none"/>
 </g>
  </g>
 </g>
 <g stroke-width="1.50009pt">
 <g stroke-dasharray="none" stroke-dashoffset="0.0pt">
 <g stroke-dasharray="none" stroke-dashoffset="0.0pt">
 <g stroke-linecap="butt">
 <g fill="rgb(0.0%,0.0%,0.0%)">
 <g stroke="rgb(0.0%,0.0%,0.0%)">
 <path d=" M  457.5 -187.5 L  474.24411 -181.91843  " style="fill:none"/>
 <g>
 <g transform="matrix(0.94963,0.31651,-0.31651,0.94963,474.24411,-181.91844)">
 <g>
 <path d=" M  6.57024 0.0 C  4.62346 0.365 1.46005 1.46005 -0.73003 2.7376 L  -0.73003 -2.7376 C  1.46005 -1.46005 4.62346 -0.365 6.57024 0.0  " style="stroke:none"/>
 </g>
  </g>
 </g>
 <g stroke-width="1.50009pt">
 <g stroke-dasharray="none" stroke-dashoffset="0.0pt">
 <g stroke-dasharray="none" stroke-dashoffset="0.0pt">
 <g stroke-linecap="butt">
 <g fill="rgb(0.0%,0.0%,0.0%)">
 <g stroke="rgb(0.0%,0.0%,0.0%)">
 <path d=" M  524.5166 -165.16113 L  541.26071 -159.57956  " style="fill:none"/>
 <g>
 <g transform="matrix(0.94963,0.31651,-0.31651,0.94963,541.26071,-159.57957)">
 <g>
 <path d=" M  6.57024 0.0 C  4.62346 0.365 1.46005 1.46005 -0.73003 2.7376 L  -0.73003 -2.7376 C  1.46005 -1.46005 4.62346 -0.365 6.57024 0.0  " style="stroke:none"/>
 </g>
  </g>
 </g>
 <g stroke-width="1.50009pt">
 <g stroke-dasharray="none" stroke-dashoffset="0.0pt">
 <g stroke-dasharray="none" stroke-dashoffset="0.0pt">
 <g stroke-linecap="butt">
 <g fill="rgb(0.0%,0.0%,0.0%)">
 <g stroke="rgb(0.0%,0.0%,0.0%)">
 <path d=" M  525.74432 -172.5 L  563.42976 -172.5  " style="fill:none"/>
 <g>
 <g transform="matrix(1.0,0.0,0.0,1.0,563.42976,-172.5)">
 <g>
 <path d=" M  6.57024 0.0 C  4.62346 0.365 1.46005 1.46005 -0.73003 2.7376 L  -0.73003 -2.7376 C  1.46005 -1.46005 4.62346 -0.365 6.57024 0.0  " style="stroke:none"/>
 </g>
  </g>
 </g>
 <g stroke-width="1.50009pt">
 <g stroke-dasharray="none" stroke-dashoffset="0.0pt">
 <g stroke-dasharray="none" stroke-dashoffset="0.0pt">
 <g stroke-linecap="butt">
 <g fill="rgb(0.0%,0.0%,0.0%)">
 <g stroke="rgb(0.0%,0.0%,0.0%)">
 <path d=" M  524.5166 -179.83887 L  541.26071 -185.42044  " style="fill:none"/>
 <g>
 <g transform="matrix(0.94963,-0.31651,0.31651,0.94963,541.26071,-185.42043)">
 <g>
 <path d=" M  6.57024 0.0 C  4.62346 0.365 1.46005 1.46005 -0.73003 2.7376 L  -0.73003 -2.7376 C  1.46005 -1.46005 4.62346 -0.365 6.57024 0.0  " style="stroke:none"/>
 </g>
  </g>
 </g>
 <g fill="rgb(100.0%,100.0%,100.0%)">
 <path d=" M  390.0 -150.0 C  390.0 -162.42656 379.92656 -172.5 367.5 -172.5 C  355.07344 -172.5 345.0 -162.42656 345.0 -150.0 C  345.0 -137.57344 355.07344 -127.5 367.5 -127.5 C  379.92656 -127.5 390.0 -137.57344 390.0 -150.0 Z M  367.5 -150.0  " style="stroke:none"/>
 <g stroke-width="1.50009pt">
 <g stroke-dasharray="none" stroke-dashoffset="0.0pt">
 <g stroke-dasharray="none" stroke-dashoffset="0.0pt">
 <g stroke="rgb(0.0%,0.0%,0.0%)">
 <path d=" M  390.0 -150.0 C  390.0 -162.42656 379.92656 -172.5 367.5 -172.5 C  355.07344 -172.5 345.0 -162.42656 345.0 -150.0 C  345.0 -137.57344 355.07344 -127.5 367.5 -127.5 C  379.92656 -127.5 390.0 -137.57344 390.0 -150.0 Z M  367.5 -150.0  " style="fill:none"/>
 <g stroke-width="1.50009pt">
 <g stroke-dasharray="none" stroke-dashoffset="0.0pt">
 <g stroke-dasharray="none" stroke-dashoffset="0.0pt">
 <g stroke-linecap="butt">
 <g fill="rgb(0.0%,0.0%,0.0%)">
 <g stroke="rgb(0.0%,0.0%,0.0%)">
 <path d=" M  389.5166 -142.66113 L  406.26071 -137.07956  " style="fill:none"/>
 <g>
 <g transform="matrix(0.94963,0.31651,-0.31651,0.94963,406.26071,-137.07957)">
 <g>
 <path d=" M  6.57024 0.0 C  4.62346 0.365 1.46005 1.46005 -0.73003 2.7376 L  -0.73003 -2.7376 C  1.46005 -1.46005 4.62346 -0.365 6.57024 0.0  " style="stroke:none"/>
 </g>
  </g>
 </g>
 <g stroke-width="1.50009pt">
 <g stroke-dasharray="none" stroke-dashoffset="0.0pt">
 <g stroke-dasharray="none" stroke-dashoffset="0.0pt">
 <g stroke-linecap="butt">
 <g fill="rgb(0.0%,0.0%,0.0%)">
 <g stroke="rgb(0.0%,0.0%,0.0%)">
 <path d=" M  390.74432 -150.0 L  428.42976 -150.0  " style="fill:none"/>
 <g>
 <g transform="matrix(1.0,0.0,0.0,1.0,428.42976,-150.0)">
 <g>
 <path d=" M  6.57024 0.0 C  4.62346 0.365 1.46005 1.46005 -0.73003 2.7376 L  -0.73003 -2.7376 C  1.46005 -1.46005 4.62346 -0.365 6.57024 0.0  " style="stroke:none"/>
 </g>
  </g>
 </g>
 <g stroke-width="1.50009pt">
 <g stroke-dasharray="none" stroke-dashoffset="0.0pt">
 <g stroke-dasharray="none" stroke-dashoffset="0.0pt">
 <g stroke-linecap="butt">
 <g fill="rgb(0.0%,0.0%,0.0%)">
 <g stroke="rgb(0.0%,0.0%,0.0%)">
 <path d=" M  389.5166 -157.33887 L  406.26071 -162.92044  " style="fill:none"/>
 <g>
 <g transform="matrix(0.94963,-0.31651,0.31651,0.94963,406.26071,-162.92043)">
 <g>
 <path d=" M  6.57024 0.0 C  4.62346 0.365 1.46005 1.46005 -0.73003 2.7376 L  -0.73003 -2.7376 C  1.46005 -1.46005 4.62346 -0.365 6.57024 0.0  " style="stroke:none"/>
 </g>
  </g>
 </g>
 <g fill="rgb(100.0%,100.0%,100.0%)">
 <path d=" M  660.0 -150.0 C  660.0 -162.42656 649.92656 -172.5 637.5 -172.5 C  625.07344 -172.5 615.0 -162.42656 615.0 -150.0 C  615.0 -137.57344 625.07344 -127.5 637.5 -127.5 C  649.92656 -127.5 660.0 -137.57344 660.0 -150.0 Z M  637.5 -150.0  " style="stroke:none"/>
 <g stroke-width="1.50009pt">
 <g stroke-dasharray="none" stroke-dashoffset="0.0pt">
 <g stroke-dasharray="none" stroke-dashoffset="0.0pt">
 <g stroke="rgb(0.0%,0.0%,0.0%)">
 <path d=" M  660.0 -150.0 C  660.0 -162.42656 649.92656 -172.5 637.5 -172.5 C  625.07344 -172.5 615.0 -162.42656 615.0 -150.0 C  615.0 -137.57344 625.07344 -127.5 637.5 -127.5 C  649.92656 -127.5 660.0 -137.57344 660.0 -150.0 Z M  637.5 -150.0  " style="fill:none"/>
 <g stroke-width="1.50009pt">
 <g stroke-dasharray="none" stroke-dashoffset="0.0pt">
 <g stroke-dasharray="none" stroke-dashoffset="0.0pt">
 <g stroke-linecap="butt">
 <g fill="rgb(0.0%,0.0%,0.0%)">
 <g stroke="rgb(0.0%,0.0%,0.0%)">
 <path d=" M  570.0 -172.5 L  609.20291 -159.43236  " style="fill:none"/>
 <g>
 <g transform="matrix(0.94963,0.31654,-0.31654,0.94963,609.20291,-159.43236)">
 <g>
 <path d=" M  6.57024 0.0 C  4.62346 0.365 1.46005 1.46005 -0.73003 2.7376 L  -0.73003 -2.7376 C  1.46005 -1.46005 4.62346 -0.365 6.57024 0.0  " style="stroke:none"/>
 </g>
  </g>
 </g>
 <g stroke-width="1.50009pt">
 <g stroke-dasharray="none" stroke-dashoffset="0.0pt">
 <g stroke-dasharray="none" stroke-dashoffset="0.0pt">
 <g stroke-linecap="butt">
 <g fill="rgb(0.0%,0.0%,0.0%)">
 <g stroke="rgb(0.0%,0.0%,0.0%)">
 <path d=" M  592.5 -150.0 L  607.6772 -150.0  " style="fill:none"/>
 <g>
 <g transform="matrix(1.0,0.0,0.0,1.0,607.6772,-150.0)">
 <g>
 <path d=" M  6.57024 0.0 C  4.62346 0.365 1.46005 1.46005 -0.73003 2.7376 L  -0.73003 -2.7376 C  1.46005 -1.46005 4.62346 -0.365 6.57024 0.0  " style="stroke:none"/>
 </g>
  </g>
 </g>
 <g stroke-width="1.50009pt">
 <g stroke-dasharray="none" stroke-dashoffset="0.0pt">
 <g stroke-dasharray="none" stroke-dashoffset="0.0pt">
 <g stroke-linecap="butt">
 <g fill="rgb(0.0%,0.0%,0.0%)">
 <g stroke="rgb(0.0%,0.0%,0.0%)">
 <path d=" M  592.5 -135.0 L  609.24411 -140.58157  " style="fill:none"/>
 <g>
 <g transform="matrix(0.94963,-0.31651,0.31651,0.94963,609.24411,-140.58156)">
 <g>
 <path d=" M  6.57024 0.0 C  4.62346 0.365 1.46005 1.46005 -0.73003 2.7376 L  -0.73003 -2.7376 C  1.46005 -1.46005 4.62346 -0.365 6.57024 0.0  " style="stroke:none"/>
 </g>
  </g>
 </g>
 <g stroke="rgb(0.0%,0.0%,0.0%)">
 <g>
 <g>
 <g transform="matrix(1.0,0.0,0.0,1.0,353.45831,-154.72823)">
 <g fill="rgb(0.0%,0.0%,0.0%)">
 <text style="stroke:none" transform="scale(1,-1) translate(14.04169,0)" text-anchor="middle"  font-size="10"> 
parent</text> 
</g>
 </g>
 </g>
 </g>
 <g stroke="rgb(0.0%,0.0%,0.0%)">
 <g>
 <g>
 <g transform="matrix(1.0,0.0,0.0,1.0,627.08331,-156.09726)">
 <g fill="rgb(0.0%,0.0%,0.0%)">
 <text style="stroke:none" transform="scale(1,-1) translate(10.41669,0)" text-anchor="middle"  font-size="10"> 
child</text> 
</g>
 </g>
 </g>
 </g>
 <g stroke="rgb(0.0%,0.0%,0.0%)">
 <g>
 <g>
 <g transform="matrix(1.0,0.0,0.0,1.0,409.52766,-145.56082)">
 <g fill="rgb(0.0%,0.0%,0.0%)">
 <text style="stroke:none" transform="scale(1,-1) translate(28.47229,0)" text-anchor="middle"  font-size="10"> 
i_output = 1</text> 
</g>
 </g>
 </g>
 </g>
 <g stroke="rgb(0.0%,0.0%,0.0%)">
 <g>
 <g>
 <g transform="matrix(1.0,0.0,0.0,1.0,567.08327,-184.46844)">
 <g fill="rgb(0.0%,0.0%,0.0%)">
 <text style="stroke:none" transform="scale(1,-1) translate(25.41673,0)" text-anchor="middle"  font-size="10"> 
i_input = 2</text> 
</g>
 </g>
 </g>
 </g>
 </g>
 </g>
 </g>
 </g>
 </g>
 </g>
 </g>
 </g>
 </g>
 </g>
 </g>
 </g>
 </g>
 </g>
 </g>
 </g>
 </g>
 </g>
 </g>
 </g>
 </g>
 </g>
 </g>
 </g>
 </g>
 </g>
 </g>
 </g>
 </g>
 </g>
 </g>
 </g>
 </g>
 </g>
 </g>
 </g>
 </g>
 </g>
 </g>
 </g>
 </g>
 </g>
 </g>
 </g>
 </g>
 </g>
 </g>
 </g>
 </g>
 </g>
 </g>
 </g>
 </g>
 </g>
 </g>
 </g>
 </g>
 </g>
 </g>
 </g>
 </g>
 </g>
 </g>
 </g>
 </g>
 </g>
 </g>
 </g>
 </g>
 </g>
 </g>
 </g>
 </g>
 </g>
 </g>
 </g>
 </g>
 </g>
 </g>
 </g>
 </g>
 </g>
 </g>
 </g>
 </g>
 </g>
 </g>
 </g>
 </g>
 </g>
 </g>
 </g>
 </g>
 </g>
 </g>
 </g>
 </g>
 </g>
 
                                                                                               </g> 
</svg> 
