<?xml version="1.0" encoding="iso-8859-1" standalone="no"?> 
<?xml-stylesheet href="first_parent.css" type="text/css"?> 
<svg xmlns="http://www.w3.org/2000/svg" xmlns:xlink="http://www.w3.org/1999/xlink" width="91.50009pt" height="166.50009pt" viewBox="254.24995 -210.75005 91.50009 166.50009 "> 
<g transform="translate(0,-44.24995 ) scale(1,-1) translate(0,210.75005 )"> 
<g>
 <g stroke="rgb(0.0%,0.0%,0.0%)">
 <g fill="rgb(0.0%,0.0%,0.0%)">
 <g stroke-width="0.4pt">
 <g>
 <g stroke="rgb(0.0%,0.0%,0.0%)">
 <g fill="rgb(100.0%,100.0%,100.0%)">
 <g fill="rgb(100.0%,100.0%,100.0%)">
 <path d=" M  315.0 -195.0 C  315.0 -203.28438 308.28438 -210.0 300.0 -210.0 C  291.71562 -210.0 285.0 -203.28438 285.0 -195.0 C  285.0 -186.71562 291.71562 -180.0 300.0 -180.0 C  308.28438 -180.0 315.0 -186.71562 315.0 -195.0 Z M  300.0 -195.0  " style="stroke:none"/>
 <g stroke-width="1.50009pt">
 <g stroke-dasharray="none" stroke-dashoffset="0.0pt">
 <g stroke-dasharray="none" stroke-dashoffset="0.0pt">
 <g stroke="rgb(0.0%,0.0%,0.0%)">
 <path d=" M  315.0 -195.0 C  315.0 -203.28438 308.28438 -210.0 300.0 -210.0 C  291.71562 -210.0 285.0 -203.28438 285.0 -195.0 C  285.0 -186.71562 291.71562 -180.0 300.0 -180.0 C  308.28438 -180.0 315.0 -186.71562 315.0 -195.0 Z M  300.0 -195.0  " style="fill:none"/>
 <g fill="rgb(100.0%,100.0%,100.0%)">
 <path d=" M  315.0 -150.0 C  315.0 -158.28438 308.28438 -165.0 300.0 -165.0 C  291.71562 -165.0 285.0 -158.28438 285.0 -150.0 C  285.0 -141.71562 291.71562 -135.0 300.0 -135.0 C  308.28438 -135.0 315.0 -141.71562 315.0 -150.0 Z M  300.0 -150.0  " style="stroke:none"/>
 <g stroke-width="1.50009pt">
 <g stroke-dasharray="none" stroke-dashoffset="0.0pt">
 <g stroke-dasharray="none" stroke-dashoffset="0.0pt">
 <g stroke="rgb(0.0%,0.0%,0.0%)">
 <path d=" M  315.0 -150.0 C  315.0 -158.28438 308.28438 -165.0 300.0 -165.0 C  291.71562 -165.0 285.0 -158.28438 285.0 -150.0 C  285.0 -141.71562 291.71562 -135.0 300.0 -135.0 C  308.28438 -135.0 315.0 -141.71562 315.0 -150.0 Z M  300.0 -150.0  " style="fill:none"/>
 <g fill="rgb(100.0%,100.0%,100.0%)">
 <path d=" M  285.0 -105.0 C  285.0 -113.28438 278.28438 -120.0 270.0 -120.0 C  261.71562 -120.0 255.0 -113.28438 255.0 -105.0 C  255.0 -96.71562 261.71562 -90.0 270.0 -90.0 C  278.28438 -90.0 285.0 -96.71562 285.0 -105.0 Z M  270.0 -105.0  " style="stroke:none"/>
 <g stroke-width="1.50009pt">
 <g stroke-dasharray="none" stroke-dashoffset="0.0pt">
 <g stroke-dasharray="none" stroke-dashoffset="0.0pt">
 <g stroke="rgb(0.0%,0.0%,0.0%)">
 <path d=" M  285.0 -105.0 C  285.0 -113.28438 278.28438 -120.0 270.0 -120.0 C  261.71562 -120.0 255.0 -113.28438 255.0 -105.0 C  255.0 -96.71562 261.71562 -90.0 270.0 -90.0 C  278.28438 -90.0 285.0 -96.71562 285.0 -105.0 Z M  270.0 -105.0  " style="fill:none"/>
 <g fill="rgb(100.0%,100.0%,100.0%)">
 <path d=" M  345.0 -60.0 C  345.0 -68.28438 338.28438 -75.0 330.0 -75.0 C  321.71562 -75.0 315.0 -68.28438 315.0 -60.0 C  315.0 -51.71562 321.71562 -45.0 330.0 -45.0 C  338.28438 -45.0 345.0 -51.71562 345.0 -60.0 Z M  330.0 -60.0  " style="stroke:none"/>
 <g stroke-width="1.50009pt">
 <g stroke-dasharray="none" stroke-dashoffset="0.0pt">
 <g stroke-dasharray="none" stroke-dashoffset="0.0pt">
 <g stroke="rgb(0.0%,0.0%,0.0%)">
 <path d=" M  345.0 -60.0 C  345.0 -68.28438 338.28438 -75.0 330.0 -75.0 C  321.71562 -75.0 315.0 -68.28438 315.0 -60.0 C  315.0 -51.71562 321.71562 -45.0 330.0 -45.0 C  338.28438 -45.0 345.0 -51.71562 345.0 -60.0 Z M  330.0 -60.0  " style="fill:none"/>
 <g stroke-width="1.50009pt">
 <g stroke-dasharray="none" stroke-dashoffset="0.0pt">
 <g stroke-dasharray="none" stroke-dashoffset="0.0pt">
 <g stroke-linejoin="miter">
 <g stroke-linecap="butt">
 <g fill="rgb(0.0%,0.0%,0.0%)">
 <g stroke="rgb(0.0%,0.0%,0.0%)">
 <path d=" M  285.0 -195.0 C  270.0 -195.0 270.0 -195.0 270.0 -180.0  " style="fill:none"/>
 <g stroke-width="1.50009pt">
 <g stroke-dasharray="none" stroke-dashoffset="0.0pt">
 <g stroke-dasharray="none" stroke-dashoffset="0.0pt">
 <g stroke-linecap="butt">
 <g fill="rgb(0.0%,0.0%,0.0%)">
 <g stroke="rgb(0.0%,0.0%,0.0%)">
 <path d=" M  270.0 -180.0 L  270.0 -120.0  " style="fill:none"/>
 <g stroke-width="1.50009pt">
 <g stroke-dasharray="none" stroke-dashoffset="0.0pt">
 <g stroke-dasharray="none" stroke-dashoffset="0.0pt">
 <g stroke-linecap="butt">
 <g fill="rgb(0.0%,0.0%,0.0%)">
 <g stroke="rgb(0.0%,0.0%,0.0%)">
 <path d=" M  300.0 -180.0 L  300.0 -165.0  " style="fill:none"/>
 <g stroke-width="1.50009pt">
 <g stroke-dasharray="none" stroke-dashoffset="0.0pt">
 <g stroke-dasharray="none" stroke-dashoffset="0.0pt">
 <g stroke-linecap="butt">
 <g fill="rgb(0.0%,0.0%,0.0%)">
 <g stroke="rgb(0.0%,0.0%,0.0%)">
 <path d=" M  330.0 -180.0 L  330.0 -75.0  " style="fill:none"/>
 <g stroke-width="1.50009pt">
 <g stroke-dasharray="none" stroke-dashoffset="0.0pt">
 <g stroke-dasharray="none" stroke-dashoffset="0.0pt">
 <g stroke-linejoin="miter">
 <g stroke-linecap="butt">
 <g fill="rgb(0.0%,0.0%,0.0%)">
 <g stroke="rgb(0.0%,0.0%,0.0%)">
 <path d=" M  315.0 -195.0 C  330.0 -195.0 330.0 -195.0 330.0 -180.0  " style="fill:none"/>
 </g>
 </g>
 </g>
 </g>
 </g>
 </g>
 </g>
 </g>
 </g>
 </g>
 </g>
 </g>
 </g>
 </g>
 </g>
 </g>
 </g>
 </g>
 </g>
 </g>
 </g>
 </g>
 </g>
 </g>
 </g>
 </g>
 </g>
 </g>
 </g>
 </g>
 </g>
 </g>
 </g>
 </g>
 </g>
 </g>
 </g>
 </g>
 </g>
 </g>
 </g>
 </g>
 </g>
 </g>
 </g>
 </g>
 </g>
 </g>
 </g>
 </g>
 </g>
 </g>
 </g>
 </g>
 </g>
 </g>
 </g>
 </g>
 </g>
 
                 </g> 
</svg> 
