<?xml version="1.0" encoding="iso-8859-1" standalone="no"?> 
<?xml-stylesheet href="other_parent.css" type="text/css"?> 
<svg xmlns="http://www.w3.org/2000/svg" xmlns:xlink="http://www.w3.org/1999/xlink" width="91.50009pt" height="121.50009pt" viewBox="224.24995 -195.75005 91.50009 121.50009 "> 
<g transform="translate(0,-74.24995 ) scale(1,-1) translate(0,195.75005 )"> 
<g>
 <g stroke="rgb(0.0%,0.0%,0.0%)">
 <g fill="rgb(0.0%,0.0%,0.0%)">
 <g stroke-width="0.4pt">
 <g>
 <g stroke="rgb(0.0%,0.0%,0.0%)">
 <g fill="rgb(100.0%,100.0%,100.0%)">
 <g fill="rgb(100.0%,100.0%,100.0%)">
 <path d=" M  285.0 -180.0 C  285.0 -188.28438 278.28438 -195.0 270.0 -195.0 C  261.71562 -195.0 255.0 -188.28438 255.0 -180.0 C  255.0 -171.71562 261.71562 -165.0 270.0 -165.0 C  278.28438 -165.0 285.0 -171.71562 285.0 -180.0 Z M  270.0 -180.0  " style="stroke:none"/>
 <g stroke-width="1.50009pt">
 <g stroke-dasharray="none" stroke-dashoffset="0.0pt">
 <g stroke-dasharray="none" stroke-dashoffset="0.0pt">
 <g stroke="rgb(0.0%,0.0%,0.0%)">
 <path d=" M  285.0 -180.0 C  285.0 -188.28438 278.28438 -195.0 270.0 -195.0 C  261.71562 -195.0 255.0 -188.28438 255.0 -180.0 C  255.0 -171.71562 261.71562 -165.0 270.0 -165.0 C  278.28438 -165.0 285.0 -171.71562 285.0 -180.0 Z M  270.0 -180.0  " style="fill:none"/>
 <g fill="rgb(100.0%,100.0%,100.0%)">
 <path d=" M  255.0 -90.0 C  255.0 -98.28438 248.28438 -105.0 240.0 -105.0 C  231.71562 -105.0 225.0 -98.28438 225.0 -90.0 C  225.0 -81.71562 231.71562 -75.0 240.0 -75.0 C  248.28438 -75.0 255.0 -81.71562 255.0 -90.0 Z M  240.0 -90.0  " style="stroke:none"/>
 <g stroke-width="1.50009pt">
 <g stroke-dasharray="none" stroke-dashoffset="0.0pt">
 <g stroke-dasharray="none" stroke-dashoffset="0.0pt">
 <g stroke="rgb(0.0%,0.0%,0.0%)">
 <path d=" M  255.0 -90.0 C  255.0 -98.28438 248.28438 -105.0 240.0 -105.0 C  231.71562 -105.0 225.0 -98.28438 225.0 -90.0 C  225.0 -81.71562 231.71562 -75.0 240.0 -75.0 C  248.28438 -75.0 255.0 -81.71562 255.0 -90.0 Z M  240.0 -90.0  " style="fill:none"/>
 <g fill="rgb(100.0%,100.0%,100.0%)">
 <path d=" M  315.0 -120.0 C  315.0 -128.28438 308.28438 -135.0 300.0 -135.0 C  291.71562 -135.0 285.0 -128.28438 285.0 -120.0 C  285.0 -111.71562 291.71562 -105.0 300.0 -105.0 C  308.28438 -105.0 315.0 -111.71562 315.0 -120.0 Z M  300.0 -120.0  " style="stroke:none"/>
 <g stroke-width="1.50009pt">
 <g stroke-dasharray="none" stroke-dashoffset="0.0pt">
 <g stroke-dasharray="none" stroke-dashoffset="0.0pt">
 <g stroke="rgb(0.0%,0.0%,0.0%)">
 <path d=" M  315.0 -120.0 C  315.0 -128.28438 308.28438 -135.0 300.0 -135.0 C  291.71562 -135.0 285.0 -128.28438 285.0 -120.0 C  285.0 -111.71562 291.71562 -105.0 300.0 -105.0 C  308.28438 -105.0 315.0 -111.71562 315.0 -120.0 Z M  300.0 -120.0  " style="fill:none"/>
 <g stroke-width="1.50009pt">
 <g stroke-dasharray="none" stroke-dashoffset="0.0pt">
 <g stroke-dasharray="none" stroke-dashoffset="0.0pt">
 <g stroke-linejoin="miter">
 <g stroke-linecap="butt">
 <g fill="rgb(0.0%,0.0%,0.0%)">
 <g stroke="rgb(0.0%,0.0%,0.0%)">
 <path d=" M  270.0 -105.0 C  270.0 -90.0 270.0 -90.0 255.0 -90.0  " style="fill:none"/>
 <g stroke-width="1.50009pt">
 <g stroke-dasharray="none" stroke-dashoffset="0.0pt">
 <g stroke-dasharray="none" stroke-dashoffset="0.0pt">
 <g stroke-linecap="butt">
 <g fill="rgb(0.0%,0.0%,0.0%)">
 <g stroke="rgb(0.0%,0.0%,0.0%)">
 <path d=" M  270.0 -165.0 L  270.0 -105.0  " style="fill:none"/>
 <g stroke-width="1.50009pt">
 <g stroke-dasharray="none" stroke-dashoffset="0.0pt">
 <g stroke-dasharray="none" stroke-dashoffset="0.0pt">
 <g stroke-linejoin="miter">
 <g stroke-linecap="butt">
 <g fill="rgb(0.0%,0.0%,0.0%)">
 <g stroke="rgb(0.0%,0.0%,0.0%)">
 <path d=" M  285.0 -120.0 C  270.0 -120.0 270.0 -120.0 270.0 -135.0  " style="fill:none"/>
 </g>
 </g>
 </g>
 </g>
 </g>
 </g>
 </g>
 </g>
 </g>
 </g>
 </g>
 </g>
 </g>
 </g>
 </g>
 </g>
 </g>
 </g>
 </g>
 </g>
 </g>
 </g>
 </g>
 </g>
 </g>
 </g>
 </g>
 </g>
 </g>
 </g>
 </g>
 </g>
 </g>
 </g>
 </g>
 </g>
 </g>
 </g>
 </g>
 </g>
 </g>
 </g>
 
                 </g> 
</svg> 
