<?xml version="1.0" encoding="iso-8859-1" standalone="no"?> 
<?xml-stylesheet href="constraints_before.css" type="text/css"?> 
<svg xmlns="http://www.w3.org/2000/svg" xmlns:xlink="http://www.w3.org/1999/xlink" width="127.49954pt" height="179.99931pt" viewBox="114.74945 -179.24927 127.49954 179.99931 "> 
<g transform="translate(0,0.75005 ) scale(1,-1) translate(0,179.24927 )"> 
<g>
 <g stroke="rgb(0.0%,0.0%,0.0%)">
 <g fill="rgb(0.0%,0.0%,0.0%)">
 <g stroke-width="0.4pt">
 <g>
 <g stroke="rgb(0.0%,0.0%,0.0%)">
 <g fill="rgb(100.0%,100.0%,100.0%)">
 <g fill="rgb(100.0%,100.0%,100.0%)">
 <path d=" M  136.4994 -104.99954 C  136.4994 -110.79857 131.79848 -115.4995 125.99945 -115.4995 C  120.20042 -115.4995 115.4995 -110.79857 115.4995 -104.99954 C  115.4995 -99.20052 120.20042 -94.49959 125.99945 -94.49959 C  131.79848 -94.49959 136.4994 -99.20052 136.4994 -104.99954 Z M  125.99945 -104.99954  " style="stroke:none"/>
 <g stroke-width="1.50009pt">
 <g stroke-dasharray="none" stroke-dashoffset="0.0pt">
 <g stroke-dasharray="none" stroke-dashoffset="0.0pt">
 <g stroke="rgb(0.0%,0.0%,0.0%)">
 <path d=" M  136.4994 -104.99954 C  136.4994 -110.79857 131.79848 -115.4995 125.99945 -115.4995 C  120.20042 -115.4995 115.4995 -110.79857 115.4995 -104.99954 C  115.4995 -99.20052 120.20042 -94.49959 125.99945 -94.49959 C  131.79848 -94.49959 136.4994 -99.20052 136.4994 -104.99954 Z M  125.99945 -104.99954  " style="fill:none"/>
 <g fill="rgb(100.0%,100.0%,100.0%)">
 <path d=" M  157.49931 -136.4994 C  157.49931 -142.29843 152.79839 -146.99936 146.99936 -146.99936 C  141.20033 -146.99936 136.4994 -142.29843 136.4994 -136.4994 C  136.4994 -130.70038 141.20033 -125.99945 146.99936 -125.99945 C  152.79839 -125.99945 157.49931 -130.70038 157.49931 -136.4994 Z M  146.99936 -136.4994  " style="stroke:none"/>
 <g stroke-width="1.50009pt">
 <g stroke-dasharray="none" stroke-dashoffset="0.0pt">
 <g stroke-dasharray="none" stroke-dashoffset="0.0pt">
 <g stroke="rgb(0.0%,0.0%,0.0%)">
 <path d=" M  157.49931 -136.4994 C  157.49931 -142.29843 152.79839 -146.99936 146.99936 -146.99936 C  141.20033 -146.99936 136.4994 -142.29843 136.4994 -136.4994 C  136.4994 -130.70038 141.20033 -125.99945 146.99936 -125.99945 C  152.79839 -125.99945 157.49931 -130.70038 157.49931 -136.4994 Z M  146.99936 -136.4994  " style="fill:none"/>
 <g fill="rgb(100.0%,100.0%,100.0%)">
 <path d=" M  136.4994 -167.99927 C  136.4994 -173.7983 131.79848 -178.49922 125.99945 -178.49922 C  120.20042 -178.49922 115.4995 -173.7983 115.4995 -167.99927 C  115.4995 -162.20024 120.20042 -157.49931 125.99945 -157.49931 C  131.79848 -157.49931 136.4994 -162.20024 136.4994 -167.99927 Z M  125.99945 -167.99927  " style="stroke:none"/>
 <g stroke-width="1.50009pt">
 <g stroke-dasharray="none" stroke-dashoffset="0.0pt">
 <g stroke-dasharray="none" stroke-dashoffset="0.0pt">
 <g stroke="rgb(0.0%,0.0%,0.0%)">
 <path d=" M  136.4994 -167.99927 C  136.4994 -173.7983 131.79848 -178.49922 125.99945 -178.49922 C  120.20042 -178.49922 115.4995 -173.7983 115.4995 -167.99927 C  115.4995 -162.20024 120.20042 -157.49931 125.99945 -157.49931 C  131.79848 -157.49931 136.4994 -162.20024 136.4994 -167.99927 Z M  125.99945 -167.99927  " style="fill:none"/>
 <g fill="rgb(100.0%,100.0%,100.0%)">
 <path d=" M  178.49922 -41.99982 C  178.49922 -47.79884 173.7983 -52.49977 167.99927 -52.49977 C  162.20024 -52.49977 157.49931 -47.79884 157.49931 -41.99982 C  157.49931 -36.20079 162.20024 -31.49986 167.99927 -31.49986 C  173.7983 -31.49986 178.49922 -36.20079 178.49922 -41.99982 Z M  167.99927 -41.99982  " style="stroke:none"/>
 <g stroke-width="1.50009pt">
 <g stroke-dasharray="none" stroke-dashoffset="0.0pt">
 <g stroke-dasharray="none" stroke-dashoffset="0.0pt">
 <g stroke="rgb(0.0%,0.0%,0.0%)">
 <path d=" M  178.49922 -41.99982 C  178.49922 -47.79884 173.7983 -52.49977 167.99927 -52.49977 C  162.20024 -52.49977 157.49931 -47.79884 157.49931 -41.99982 C  157.49931 -36.20079 162.20024 -31.49986 167.99927 -31.49986 C  173.7983 -31.49986 178.49922 -36.20079 178.49922 -41.99982 Z M  167.99927 -41.99982  " style="fill:none"/>
 <g stroke-width="1.50009pt">
 <g stroke-dasharray="none" stroke-dashoffset="0.0pt">
 <g stroke-dasharray="none" stroke-dashoffset="0.0pt">
 <g stroke-linejoin="miter">
 <g stroke-linecap="butt">
 <g fill="rgb(0.0%,0.0%,0.0%)">
 <g stroke="rgb(0.0%,0.0%,0.0%)">
 <path d=" M  136.4994 -167.99927 C  146.99936 -167.99927 146.99936 -167.99927 146.99936 -157.49931  " style="fill:none"/>
 <g stroke-width="1.50009pt">
 <g stroke-dasharray="none" stroke-dashoffset="0.0pt">
 <g stroke-dasharray="none" stroke-dashoffset="0.0pt">
 <g stroke-linecap="butt">
 <g fill="rgb(0.0%,0.0%,0.0%)">
 <g stroke="rgb(0.0%,0.0%,0.0%)">
 <path d=" M  146.99936 -157.49931 L  146.99936 -146.99936  " style="fill:none"/>
 <g stroke-width="1.50009pt">
 <g stroke-dasharray="none" stroke-dashoffset="0.0pt">
 <g stroke-dasharray="none" stroke-dashoffset="0.0pt">
 <g stroke-linecap="butt">
 <g fill="rgb(0.0%,0.0%,0.0%)">
 <g stroke="rgb(0.0%,0.0%,0.0%)">
 <path d=" M  146.99936 -125.99945 L  146.99936 -115.4995  " style="fill:none"/>
 <g stroke-width="1.50009pt">
 <g stroke-dasharray="none" stroke-dashoffset="0.0pt">
 <g stroke-dasharray="none" stroke-dashoffset="0.0pt">
 <g stroke-linejoin="miter">
 <g stroke-linecap="butt">
 <g fill="rgb(0.0%,0.0%,0.0%)">
 <g stroke="rgb(0.0%,0.0%,0.0%)">
 <path d=" M  146.99936 -115.4995 C  146.99936 -104.99954 146.99936 -104.99954 136.4994 -104.99954  " style="fill:none"/>
 <g fill="rgb(100.0%,100.0%,100.0%)">
 <path d=" M  209.99908 -10.49995 C  209.99908 -16.29898 205.29816 -20.99991 199.49913 -20.99991 C  193.7001 -20.99991 188.99918 -16.29898 188.99918 -10.49995 C  188.99918 -4.70093 193.7001 0.0 199.49913 0.0 C  205.29816 0.0 209.99908 -4.70093 209.99908 -10.49995 Z M  199.49913 -10.49995  " style="stroke:none"/>
 <g stroke-width="1.50009pt">
 <g stroke-dasharray="none" stroke-dashoffset="0.0pt">
 <g stroke-dasharray="none" stroke-dashoffset="0.0pt">
 <g stroke="rgb(0.0%,0.0%,0.0%)">
 <path d=" M  209.99908 -10.49995 C  209.99908 -16.29898 205.29816 -20.99991 199.49913 -20.99991 C  193.7001 -20.99991 188.99918 -16.29898 188.99918 -10.49995 C  188.99918 -4.70093 193.7001 0.0 199.49913 0.0 C  205.29816 0.0 209.99908 -4.70093 209.99908 -10.49995 Z M  199.49913 -10.49995  " style="fill:none"/>
 <g fill="rgb(100.0%,100.0%,100.0%)">
 <path d=" M  241.49895 -73.49968 C  241.49895 -79.2987 236.79802 -83.99963 230.999 -83.99963 C  225.19997 -83.99963 220.49904 -79.2987 220.49904 -73.49968 C  220.49904 -67.70065 225.19997 -62.99973 230.999 -62.99973 C  236.79802 -62.99973 241.49895 -67.70065 241.49895 -73.49968 Z M  230.999 -73.49968  " style="stroke:none"/>
 <g stroke-width="1.50009pt">
 <g stroke-dasharray="none" stroke-dashoffset="0.0pt">
 <g stroke-dasharray="none" stroke-dashoffset="0.0pt">
 <g stroke="rgb(0.0%,0.0%,0.0%)">
 <path d=" M  241.49895 -73.49968 C  241.49895 -79.2987 236.79802 -83.99963 230.999 -83.99963 C  225.19997 -83.99963 220.49904 -79.2987 220.49904 -73.49968 C  220.49904 -67.70065 225.19997 -62.99973 230.999 -62.99973 C  236.79802 -62.99973 241.49895 -67.70065 241.49895 -73.49968 Z M  230.999 -73.49968  " style="fill:none"/>
 <g stroke-width="1.50009pt">
 <g stroke-dasharray="none" stroke-dashoffset="0.0pt">
 <g stroke-dasharray="none" stroke-dashoffset="0.0pt">
 <g stroke-linejoin="miter">
 <g stroke-linecap="butt">
 <g fill="rgb(0.0%,0.0%,0.0%)">
 <g stroke="rgb(0.0%,0.0%,0.0%)">
 <path d=" M  199.49913 -62.99973 C  199.49913 -73.49968 199.49913 -73.49968 209.99908 -73.49968  " style="fill:none"/>
 <g stroke-width="1.50009pt">
 <g stroke-dasharray="none" stroke-dashoffset="0.0pt">
 <g stroke-dasharray="none" stroke-dashoffset="0.0pt">
 <g stroke-linecap="butt">
 <g fill="rgb(0.0%,0.0%,0.0%)">
 <g stroke="rgb(0.0%,0.0%,0.0%)">
 <path d=" M  199.49913 -20.99991 L  199.49913 -62.99973  " style="fill:none"/>
 <g stroke-width="1.50009pt">
 <g stroke-dasharray="none" stroke-dashoffset="0.0pt">
 <g stroke-dasharray="none" stroke-dashoffset="0.0pt">
 <g stroke-linecap="butt">
 <g fill="rgb(0.0%,0.0%,0.0%)">
 <g stroke="rgb(0.0%,0.0%,0.0%)">
 <path d=" M  209.99908 -73.49968 L  220.49904 -73.49968  " style="fill:none"/>
 <g stroke="rgb(0.0%,0.0%,0.0%)">
 <g>
 <g>
 <g transform="matrix(1.0,0.0,0.0,1.0,203.58215,-20.99991)">
 <g fill="rgb(0.0%,0.0%,0.0%)">
 <text style="stroke:none" transform="scale(1,-1) translate(0.0,0)" text-anchor="middle"  font-size="10"> 
</text> 
</g>
 </g>
 </g>
 </g>
 <g stroke="rgb(0.0%,0.0%,0.0%)">
 <g>
 <g>
 <g transform="matrix(1.0,0.0,0.0,1.0,196.99913,-14.989)">
 <g fill="rgb(0.0%,0.0%,0.0%)">
 <text style="stroke:none" transform="scale(1,-1) translate(2.5,0)" text-anchor="middle"  font-size="10"> 
a</text> 
</g>
 </g>
 </g>
 </g>
 <g stroke="rgb(0.0%,0.0%,0.0%)">
 <g>
 <g>
 <g transform="matrix(1.0,0.0,0.0,1.0,165.22148,-47.8083)">
 <g fill="rgb(0.0%,0.0%,0.0%)">
 <text style="stroke:none" transform="scale(1,-1) translate(2.77779,0)" text-anchor="middle"  font-size="10"> 
b</text> 
</g>
 </g>
 </g>
 </g>
 <g stroke="rgb(0.0%,0.0%,0.0%)">
 <g>
 <g>
 <g transform="matrix(1.0,0.0,0.0,1.0,228.77678,-77.98872)">
 <g fill="rgb(0.0%,0.0%,0.0%)">
 <text style="stroke:none" transform="scale(1,-1) translate(2.22221,0)" text-anchor="middle"  font-size="10"> 
c</text> 
</g>
 </g>
 </g>
 </g>
 <g stroke="rgb(0.0%,0.0%,0.0%)">
 <g>
 <g>
 <g transform="matrix(1.0,0.0,0.0,1.0,123.22166,-110.80803)">
 <g fill="rgb(0.0%,0.0%,0.0%)">
 <text style="stroke:none" transform="scale(1,-1) translate(2.77779,0)" text-anchor="middle"  font-size="10"> 
d</text> 
</g>
 </g>
 </g>
 </g>
 <g stroke="rgb(0.0%,0.0%,0.0%)">
 <g>
 <g>
 <g transform="matrix(1.0,0.0,0.0,1.0,144.77715,-140.98845)">
 <g fill="rgb(0.0%,0.0%,0.0%)">
 <text style="stroke:none" transform="scale(1,-1) translate(2.22221,0)" text-anchor="middle"  font-size="10"> 
e</text> 
</g>
 </g>
 </g>
 </g>
 <g stroke="rgb(0.0%,0.0%,0.0%)">
 <g>
 <g>
 <g transform="matrix(1.0,0.0,0.0,1.0,124.47166,-173.80775)">
 <g fill="rgb(0.0%,0.0%,0.0%)">
 <text style="stroke:none" transform="scale(1,-1) translate(1.52779,0)" text-anchor="middle"  font-size="10"> 
f</text> 
</g>
 </g>
 </g>
 </g>
 </g>
 </g>
 </g>
 </g>
 </g>
 </g>
 </g>
 </g>
 </g>
 </g>
 </g>
 </g>
 </g>
 </g>
 </g>
 </g>
 </g>
 </g>
 </g>
 </g>
 </g>
 </g>
 </g>
 </g>
 </g>
 </g>
 </g>
 </g>
 </g>
 </g>
 </g>
 </g>
 </g>
 </g>
 </g>
 </g>
 </g>
 </g>
 </g>
 </g>
 </g>
 </g>
 </g>
 </g>
 </g>
 </g>
 </g>
 </g>
 </g>
 </g>
 </g>
 </g>
 </g>
 </g>
 </g>
 </g>
 </g>
 </g>
 </g>
 </g>
 </g>
 </g>
 </g>
 </g>
 </g>
 </g>
 </g>
 </g>
 </g>
 </g>
 </g>
 </g>
 </g>
 </g>
 </g>
 </g>
 </g>
 </g>
 </g>
 </g>
 </g>
 </g>
 </g>
 </g>
 </g>
 </g>
 </g>
 </g>
 </g>
 
                        </g> 
</svg> 
