<?xml version="1.0" encoding="iso-8859-1" standalone="no"?> 
<?xml-stylesheet href="reber.css" type="text/css"?> 
<svg xmlns="http://www.w3.org/2000/svg" xmlns:xlink="http://www.w3.org/1999/xlink" width="391.50009pt" height="203.99922pt" viewBox="89.24995 -328.08714 391.50009 203.99922 "> 
<g transform="translate(0, -124.08792 ) scale(1,-1) translate(0,328.08714 )"> 
<g>
 <g stroke="rgb(0.0%,0.0%,0.0%)">
 <g fill="rgb(0.0%,0.0%,0.0%)">
 <g stroke-width="0.4pt">
 <g>
 <g stroke="rgb(0.0%,0.0%,0.0%)">
 <g fill="rgb(100.0%,100.0%,100.0%)">
 <g stroke-width="1.50009pt">
 <g stroke-dasharray="none" stroke-dashoffset="0.0pt">
 <g stroke-dasharray="none" stroke-dashoffset="0.0pt">
 <g stroke-linecap="butt">
 <g stroke-linejoin="miter">
 <g stroke-width="1.50009pt">
 <g stroke-linecap="butt">
 <g stroke-linejoin="miter">
 <g stroke-dasharray="none" stroke-dashoffset="0.0pt">
 <g fill="rgb(100.0%,100.0%,100.0%)">
 <path d=" M  270.0 -180.0 C  270.0 -188.28438 263.28438 -195.0 255.0 -195.0 C  246.71562 -195.0 240.0 -188.28438 240.0 -180.0 C  240.0 -171.71562 246.71562 -165.0 255.0 -165.0 C  263.28438 -165.0 270.0 -171.71562 270.0 -180.0 Z M  255.0 -180.0  " style="stroke:none"/>
 <g stroke="rgb(0.0%,0.0%,0.0%)">
 <path d=" M  270.0 -180.0 C  270.0 -188.28438 263.28438 -195.0 255.0 -195.0 C  246.71562 -195.0 240.0 -188.28438 240.0 -180.0 C  240.0 -171.71562 246.71562 -165.0 255.0 -165.0 C  263.28438 -165.0 270.0 -171.71562 270.0 -180.0 Z M  255.0 -180.0  " style="fill:none"/>
 <g stroke="rgb(0.0%,0.0%,0.0%)">
 <g>
 <g>
 <g transform="matrix(1.0,0.0,0.0,1.0,252.5,-186.22217)">
 <g fill="rgb(0.0%,0.0%,0.0%)">
 <text style="stroke:none" transform="scale(1,-1) translate(2.5,0)" text-anchor="middle"  font-size="10"> 
2</text> 
</g>
 </g>
 </g>
 </g>
 <g stroke-width="1.50009pt">
 <g stroke-dasharray="none" stroke-dashoffset="0.0pt">
 <g stroke-dasharray="none" stroke-dashoffset="0.0pt">
 <g stroke-linecap="butt">
 <g stroke-linejoin="miter">
 <g stroke-width="1.50009pt">
 <g stroke-linecap="butt">
 <g stroke-linejoin="miter">
 <g stroke-dasharray="none" stroke-dashoffset="0.0pt">
 <g fill="rgb(100.0%,100.0%,100.0%)">
 <path d=" M  345.0 -180.0 C  345.0 -188.28438 338.28438 -195.0 330.0 -195.0 C  321.71562 -195.0 315.0 -188.28438 315.0 -180.0 C  315.0 -171.71562 321.71562 -165.0 330.0 -165.0 C  338.28438 -165.0 345.0 -171.71562 345.0 -180.0 Z M  330.0 -180.0  " style="stroke:none"/>
 <g stroke="rgb(0.0%,0.0%,0.0%)">
 <path d=" M  345.0 -180.0 C  345.0 -188.28438 338.28438 -195.0 330.0 -195.0 C  321.71562 -195.0 315.0 -188.28438 315.0 -180.0 C  315.0 -171.71562 321.71562 -165.0 330.0 -165.0 C  338.28438 -165.0 345.0 -171.71562 345.0 -180.0 Z M  330.0 -180.0  " style="fill:none"/>
 <g stroke="rgb(0.0%,0.0%,0.0%)">
 <g>
 <g>
 <g transform="matrix(1.0,0.0,0.0,1.0,327.5,-186.22217)">
 <g fill="rgb(0.0%,0.0%,0.0%)">
 <text style="stroke:none" transform="scale(1,-1) translate(2.5,0)" text-anchor="middle"  font-size="10"> 
4</text> 
</g>
 </g>
 </g>
 </g>
 <g stroke-width="1.50009pt">
 <g stroke-dasharray="none" stroke-dashoffset="0.0pt">
 <g stroke-dasharray="none" stroke-dashoffset="0.0pt">
 <g stroke-linecap="butt">
 <g stroke-linejoin="miter">
 <g stroke-width="1.50009pt">
 <g stroke-linecap="butt">
 <g stroke-linejoin="miter">
 <g stroke-dasharray="none" stroke-dashoffset="0.0pt">
 <g fill="rgb(100.0%,100.0%,100.0%)">
 <path d=" M  270.0 -270.0 C  270.0 -278.28438 263.28438 -285.0 255.0 -285.0 C  246.71562 -285.0 240.0 -278.28438 240.0 -270.0 C  240.0 -261.71562 246.71562 -255.0 255.0 -255.0 C  263.28438 -255.0 270.0 -261.71562 270.0 -270.0 Z M  255.0 -270.0  " style="stroke:none"/>
 <g stroke="rgb(0.0%,0.0%,0.0%)">
 <path d=" M  270.0 -270.0 C  270.0 -278.28438 263.28438 -285.0 255.0 -285.0 C  246.71562 -285.0 240.0 -278.28438 240.0 -270.0 C  240.0 -261.71562 246.71562 -255.0 255.0 -255.0 C  263.28438 -255.0 270.0 -261.71562 270.0 -270.0 Z M  255.0 -270.0  " style="fill:none"/>
 <g stroke="rgb(0.0%,0.0%,0.0%)">
 <g>
 <g>
 <g transform="matrix(1.0,0.0,0.0,1.0,252.5,-276.22217)">
 <g fill="rgb(0.0%,0.0%,0.0%)">
 <text style="stroke:none" transform="scale(1,-1) translate(2.5,0)" text-anchor="middle"  font-size="10"> 
3</text> 
</g>
 </g>
 </g>
 </g>
 <g stroke-width="1.50009pt">
 <g stroke-dasharray="none" stroke-dashoffset="0.0pt">
 <g stroke-dasharray="none" stroke-dashoffset="0.0pt">
 <g stroke-linecap="butt">
 <g stroke-linejoin="miter">
 <g stroke-width="1.50009pt">
 <g stroke-linecap="butt">
 <g stroke-linejoin="miter">
 <g stroke-dasharray="none" stroke-dashoffset="0.0pt">
 <g fill="rgb(100.0%,100.0%,100.0%)">
 <path d=" M  345.0 -270.0 C  345.0 -278.28438 338.28438 -285.0 330.0 -285.0 C  321.71562 -285.0 315.0 -278.28438 315.0 -270.0 C  315.0 -261.71562 321.71562 -255.0 330.0 -255.0 C  338.28438 -255.0 345.0 -261.71562 345.0 -270.0 Z M  330.0 -270.0  " style="stroke:none"/>
 <g stroke="rgb(0.0%,0.0%,0.0%)">
 <path d=" M  345.0 -270.0 C  345.0 -278.28438 338.28438 -285.0 330.0 -285.0 C  321.71562 -285.0 315.0 -278.28438 315.0 -270.0 C  315.0 -261.71562 321.71562 -255.0 330.0 -255.0 C  338.28438 -255.0 345.0 -261.71562 345.0 -270.0 Z M  330.0 -270.0  " style="fill:none"/>
 <g stroke="rgb(0.0%,0.0%,0.0%)">
 <g>
 <g>
 <g transform="matrix(1.0,0.0,0.0,1.0,327.5,-276.22217)">
 <g fill="rgb(0.0%,0.0%,0.0%)">
 <text style="stroke:none" transform="scale(1,-1) translate(2.5,0)" text-anchor="middle"  font-size="10"> 
5</text> 
</g>
 </g>
 </g>
 </g>
 <g stroke-width="1.50009pt">
 <g stroke-dasharray="none" stroke-dashoffset="0.0pt">
 <g stroke-dasharray="none" stroke-dashoffset="0.0pt">
 <g stroke-linecap="butt">
 <g stroke-linejoin="miter">
 <g stroke-width="1.50009pt">
 <g stroke-linecap="butt">
 <g stroke-linejoin="miter">
 <g stroke-dasharray="none" stroke-dashoffset="0.0pt">
 <g fill="rgb(100.0%,100.0%,100.0%)">
 <path d=" M  405.0 -225.0 C  405.0 -233.28438 398.28438 -240.0 390.0 -240.0 C  381.71562 -240.0 375.0 -233.28438 375.0 -225.0 C  375.0 -216.71562 381.71562 -210.0 390.0 -210.0 C  398.28438 -210.0 405.0 -216.71562 405.0 -225.0 Z M  390.0 -225.0  " style="stroke:none"/>
 <g stroke="rgb(0.0%,0.0%,0.0%)">
 <path d=" M  405.0 -225.0 C  405.0 -233.28438 398.28438 -240.0 390.0 -240.0 C  381.71562 -240.0 375.0 -233.28438 375.0 -225.0 C  375.0 -216.71562 381.71562 -210.0 390.0 -210.0 C  398.28438 -210.0 405.0 -216.71562 405.0 -225.0 Z M  390.0 -225.0  " style="fill:none"/>
 <g stroke="rgb(0.0%,0.0%,0.0%)">
 <g>
 <g>
 <g transform="matrix(1.0,0.0,0.0,1.0,387.5,-231.22217)">
 <g fill="rgb(0.0%,0.0%,0.0%)">
 <text style="stroke:none" transform="scale(1,-1) translate(2.5,0)" text-anchor="middle"  font-size="10"> 
6</text> 
</g>
 </g>
 </g>
 </g>
 <g stroke-width="1.50009pt">
 <g stroke-dasharray="none" stroke-dashoffset="0.0pt">
 <g stroke-dasharray="none" stroke-dashoffset="0.0pt">
 <g stroke-linecap="butt">
 <g stroke-linejoin="miter">
 <g stroke-width="1.50009pt">
 <g stroke-linecap="butt">
 <g stroke-linejoin="miter">
 <g stroke-dasharray="none" stroke-dashoffset="0.0pt">
 <g fill="rgb(100.0%,100.0%,100.0%)">
 <path d=" M  480.0 -225.0 C  480.0 -233.28438 473.28438 -240.0 465.0 -240.0 C  456.71562 -240.0 450.0 -233.28438 450.0 -225.0 C  450.0 -216.71562 456.71562 -210.0 465.0 -210.0 C  473.28438 -210.0 480.0 -216.71562 480.0 -225.0 Z M  465.0 -225.0  " style="stroke:none"/>
 <g stroke="rgb(0.0%,0.0%,0.0%)">
 <path d=" M  480.0 -225.0 C  480.0 -233.28438 473.28438 -240.0 465.0 -240.0 C  456.71562 -240.0 450.0 -233.28438 450.0 -225.0 C  450.0 -216.71562 456.71562 -210.0 465.0 -210.0 C  473.28438 -210.0 480.0 -216.71562 480.0 -225.0 Z M  465.0 -225.0  " style="fill:none"/>
 <g stroke-width="0.14992pt">
 <g stroke-linecap="butt">
 <g stroke-linejoin="miter">
 <g stroke-dasharray="none" stroke-dashoffset="0.0pt">
 <g stroke="rgb(0.0%,0.0%,0.0%)">
 <path d=" M  477.00005 -225.0 C  477.00005 -231.62752 471.62752 -237.00005 465.0 -237.00005 C  458.37248 -237.00005 452.99995 -231.62752 452.99995 -225.0 C  452.99995 -218.37248 458.37248 -212.99995 465.0 -212.99995 C  471.62752 -212.99995 477.00005 -218.37248 477.00005 -225.0 Z M  465.0 -225.0  " style="fill:none"/>
 <g stroke="rgb(0.0%,0.0%,0.0%)">
 <g>
 <g>
 <g transform="matrix(1.0,0.0,0.0,1.0,462.5,-231.22217)">
 <g fill="rgb(0.0%,0.0%,0.0%)">
 <text style="stroke:none" transform="scale(1,-1) translate(2.5,0)" text-anchor="middle"  font-size="10"> 
7</text> 
</g>
 </g>
 </g>
 </g>
 <g stroke-width="1.50009pt">
 <g stroke-dasharray="none" stroke-dashoffset="0.0pt">
 <g stroke-dasharray="none" stroke-dashoffset="0.0pt">
 <g stroke-linecap="butt">
 <g fill="rgb(0.0%,0.0%,0.0%)">
 <g stroke="rgb(0.0%,0.0%,0.0%)">
 <path d=" M  207.60132 -215.54901 L  237.14249 -193.39296  " style="fill:none"/>
 <g>
 <g transform="matrix(0.8,0.59998,-0.59998,0.8,237.14247,-193.39297)">
 <g>
 <path d=" M  6.57024 0.0 C  4.62346 0.365 1.46005 1.46005 -0.73003 2.7376 L  -0.73003 -2.7376 C  1.46005 -1.46005 4.62346 -0.365 6.57024 0.0  " style="stroke:none"/>
 </g>
  </g>
 </g>
 <g stroke-width="1.50009pt">
 <g stroke-dasharray="none" stroke-dashoffset="0.0pt">
 <g stroke-dasharray="none" stroke-dashoffset="0.0pt">
 <g stroke-linecap="butt">
 <g fill="rgb(0.0%,0.0%,0.0%)">
 <g stroke="rgb(0.0%,0.0%,0.0%)">
 <path d=" M  270.75165 -180.0 L  307.67812 -180.0  " style="fill:none"/>
 <g>
 <g transform="matrix(1.0,0.0,0.0,1.0,307.67812,-180.0)">
 <g>
 <path d=" M  6.57024 0.0 C  4.62346 0.365 1.46005 1.46005 -0.73003 2.7376 L  -0.73003 -2.7376 C  1.46005 -1.46005 4.62346 -0.365 6.57024 0.0  " style="stroke:none"/>
 </g>
  </g>
 </g>
 <g stroke-width="1.50009pt">
 <g stroke-dasharray="none" stroke-dashoffset="0.0pt">
 <g stroke-dasharray="none" stroke-dashoffset="0.0pt">
 <g stroke-linecap="butt">
 <g fill="rgb(0.0%,0.0%,0.0%)">
 <g stroke="rgb(0.0%,0.0%,0.0%)">
 <path d=" M  342.60132 -189.45099 L  372.14249 -211.60704  " style="fill:none"/>
 <g>
 <g transform="matrix(0.8,-0.59998,0.59998,0.8,372.14247,-211.60703)">
 <g>
 <path d=" M  6.57024 0.0 C  4.62346 0.365 1.46005 1.46005 -0.73003 2.7376 L  -0.73003 -2.7376 C  1.46005 -1.46005 4.62346 -0.365 6.57024 0.0  " style="stroke:none"/>
 </g>
  </g>
 </g>
 <g stroke-width="1.50009pt">
 <g stroke-dasharray="none" stroke-dashoffset="0.0pt">
 <g stroke-dasharray="none" stroke-dashoffset="0.0pt">
 <g stroke-linecap="butt">
 <g fill="rgb(0.0%,0.0%,0.0%)">
 <g stroke="rgb(0.0%,0.0%,0.0%)">
 <path d=" M  270.75165 -270.0 L  307.67812 -270.0  " style="fill:none"/>
 <g>
 <g transform="matrix(1.0,0.0,0.0,1.0,307.67812,-270.0)">
 <g>
 <path d=" M  6.57024 0.0 C  4.62346 0.365 1.46005 1.46005 -0.73003 2.7376 L  -0.73003 -2.7376 C  1.46005 -1.46005 4.62346 -0.365 6.57024 0.0  " style="stroke:none"/>
 </g>
  </g>
 </g>
 <g stroke-width="1.50009pt">
 <g stroke-dasharray="none" stroke-dashoffset="0.0pt">
 <g stroke-dasharray="none" stroke-dashoffset="0.0pt">
 <g stroke-linecap="butt">
 <g fill="rgb(0.0%,0.0%,0.0%)">
 <g stroke="rgb(0.0%,0.0%,0.0%)">
 <path d=" M  342.60132 -260.54901 L  372.14249 -238.39296  " style="fill:none"/>
 <g>
 <g transform="matrix(0.8,0.59998,-0.59998,0.8,372.14247,-238.39297)">
 <g>
 <path d=" M  6.57024 0.0 C  4.62346 0.365 1.46005 1.46005 -0.73003 2.7376 L  -0.73003 -2.7376 C  1.46005 -1.46005 4.62346 -0.365 6.57024 0.0  " style="stroke:none"/>
 </g>
  </g>
 </g>
 <g stroke-width="1.50009pt">
 <g stroke-dasharray="none" stroke-dashoffset="0.0pt">
 <g stroke-dasharray="none" stroke-dashoffset="0.0pt">
 <g stroke-linecap="butt">
 <g fill="rgb(0.0%,0.0%,0.0%)">
 <g stroke="rgb(0.0%,0.0%,0.0%)">
 <path d=" M  405.75165 -225.0 L  442.67812 -225.0  " style="fill:none"/>
 <g>
 <g transform="matrix(1.0,0.0,0.0,1.0,442.67812,-225.0)">
 <g>
 <path d=" M  6.57024 0.0 C  4.62346 0.365 1.46005 1.46005 -0.73003 2.7376 L  -0.73003 -2.7376 C  1.46005 -1.46005 4.62346 -0.365 6.57024 0.0  " style="stroke:none"/>
 </g>
  </g>
 </g>
 <g stroke-width="1.50009pt">
 <g stroke-dasharray="none" stroke-dashoffset="0.0pt">
 <g stroke-dasharray="none" stroke-dashoffset="0.0pt">
 <g stroke-linecap="butt">
 <g fill="rgb(0.0%,0.0%,0.0%)">
 <g stroke="rgb(0.0%,0.0%,0.0%)">
 <path d=" M  207.60132 -234.45099 L  237.14249 -256.60704  " style="fill:none"/>
 <g>
 <g transform="matrix(0.8,-0.59998,0.59998,0.8,237.14247,-256.60703)">
 <g>
 <path d=" M  6.57024 0.0 C  4.62346 0.365 1.46005 1.46005 -0.73003 2.7376 L  -0.73003 -2.7376 C  1.46005 -1.46005 4.62346 -0.365 6.57024 0.0  " style="stroke:none"/>
 </g>
  </g>
 </g>
 <g stroke-width="1.50009pt">
 <g stroke-dasharray="none" stroke-dashoffset="0.0pt">
 <g stroke-dasharray="none" stroke-dashoffset="0.0pt">
 <g stroke-linecap="butt">
 <g fill="rgb(0.0%,0.0%,0.0%)">
 <g stroke="rgb(0.0%,0.0%,0.0%)">
 <path d=" M  330.0 -254.24835 L  330.0 -201.57024  " style="fill:none"/>
 <g>
 <g transform="matrix(0.0,1.0,-1.0,0.0,330.0,-201.57024)">
 <g>
 <path d=" M  6.57024 0.0 C  4.62346 0.365 1.46005 1.46005 -0.73003 2.7376 L  -0.73003 -2.7376 C  1.46005 -1.46005 4.62346 -0.365 6.57024 0.0  " style="stroke:none"/>
 </g>
  </g>
 </g>
 <g stroke-width="1.50009pt">
 <g stroke-dasharray="none" stroke-dashoffset="0.0pt">
 <g stroke-dasharray="none" stroke-dashoffset="0.0pt">
 <g stroke-linecap="butt">
 <g fill="rgb(0.0%,0.0%,0.0%)">
 <g stroke="rgb(0.0%,0.0%,0.0%)">
 <path d=" M  319.92004 -192.09595 L  269.29321 -252.84836  " style="fill:none"/>
 <g>
 <g transform="matrix(-0.64127,-0.76949,0.76949,-0.64127,269.29321,-252.84836)">
 <g>
 <path d=" M  6.57024 0.0 C  4.62346 0.365 1.46005 1.46005 -0.73003 2.7376 L  -0.73003 -2.7376 C  1.46005 -1.46005 4.62346 -0.365 6.57024 0.0  " style="stroke:none"/>
 </g>
  </g>
 </g>
 <g stroke-width="1.50009pt">
 <g stroke-dasharray="none" stroke-dashoffset="0.0pt">
 <g stroke-dasharray="none" stroke-dashoffset="0.0pt">
 <g stroke-linecap="butt">
 <g fill="rgb(0.0%,0.0%,0.0%)">
 <g stroke="rgb(0.0%,0.0%,0.0%)">
 <path d=" M  265.60707 -169.39293 C  271.8833 -163.54018 272.2266 -153.7079 266.37384 -147.43167 C  260.52109 -141.15544 250.68881 -140.81215 244.41258 -146.6649 C  240.3531 -150.45047 238.62125 -156.11584 239.86983 -161.52419 C  240.54533 -164.45024 242.05582 -167.12025 239.47633 -164.62935  " style="fill:none"/>
 <g>
 <g transform="matrix(0.72139,-0.69662,0.69662,0.72139,239.47633,-164.62933)">
 <g>
 <path d=" M  6.57024 0.0 C  4.62346 0.365 1.46005 1.46005 -0.73003 2.7376 L  -0.73003 -2.7376 C  1.46005 -1.46005 4.62346 -0.365 6.57024 0.0  " style="stroke:none"/>
 </g>
  </g>
 </g>
 <g stroke-width="1.50009pt">
 <g stroke-dasharray="none" stroke-dashoffset="0.0pt">
 <g stroke-dasharray="none" stroke-dashoffset="0.0pt">
 <g stroke-linecap="butt">
 <g fill="rgb(0.0%,0.0%,0.0%)">
 <g stroke="rgb(0.0%,0.0%,0.0%)">
 <path d=" M  239.5813 -285.09398 C  238.11624 -286.46028 237.77295 -296.29256 243.6257 -302.56879 C  249.47845 -308.84502 259.31073 -309.18831 265.58696 -303.33556 C  269.64644 -299.54999 271.3783 -293.88461 270.12971 -288.47627 C  269.45421 -285.55022 267.94373 -282.8802 265.78351 -280.79413  " style="fill:none"/>
 <g>
 <g transform="matrix(0.73227,0.68285,-0.68285,0.73227,239.58128,-285.094)">
 <g>
 <path d=" M  6.57024 0.0 C  4.62346 0.365 1.46005 1.46005 -0.73003 2.7376 L  -0.73003 -2.7376 C  1.46005 -1.46005 4.62346 -0.365 6.57024 0.0  " style="stroke:none"/>
 </g>
  </g>
 </g>
 <g stroke="rgb(0.0%,0.0%,0.0%)">
 <g>
 <g>
 <g transform="matrix(1.0,0.0,0.0,1.0,252.22221,-134.25421)">
 <g fill="rgb(0.0%,0.0%,0.0%)">
 <text style="stroke:none" transform="scale(1,-1) translate(2.77779,0)" text-anchor="middle"  font-size="10"> 
S</text> 
</g>
 </g>
 </g>
 </g>
 <g stroke="rgb(0.0%,0.0%,0.0%)">
 <g>
 <g>
 <g transform="matrix(1.0,0.0,0.0,1.0,288.75,-171.75421)">
 <g fill="rgb(0.0%,0.0%,0.0%)">
 <text style="stroke:none" transform="scale(1,-1) translate(3.75,0)" text-anchor="middle"  font-size="10"> 
X</text> 
</g>
 </g>
 </g>
 </g>
 <g stroke="rgb(0.0%,0.0%,0.0%)">
 <g>
 <g>
 <g transform="matrix(1.0,0.0,0.0,1.0,273.75,-231.75421)">
 <g fill="rgb(0.0%,0.0%,0.0%)">
 <text style="stroke:none" transform="scale(1,-1) translate(3.75,0)" text-anchor="middle"  font-size="10"> 
X</text> 
</g>
 </g>
 </g>
 </g>
 <g stroke="rgb(0.0%,0.0%,0.0%)">
 <g>
 <g>
 <g transform="matrix(1.0,0.0,0.0,1.0,311.59721,-231.75421)">
 <g fill="rgb(0.0%,0.0%,0.0%)">
 <text style="stroke:none" transform="scale(1,-1) translate(3.40279,0)" text-anchor="middle"  font-size="10"> 
P</text> 
</g>
 </g>
 </g>
 </g>
 <g stroke="rgb(0.0%,0.0%,0.0%)">
 <g>
 <g>
 <g transform="matrix(1.0,0.0,0.0,1.0,364.72221,-201.75421)">
 <g fill="rgb(0.0%,0.0%,0.0%)">
 <text style="stroke:none" transform="scale(1,-1) translate(2.77779,0)" text-anchor="middle"  font-size="10"> 
S</text> 
</g>
 </g>
 </g>
 </g>
 <g stroke="rgb(0.0%,0.0%,0.0%)">
 <g>
 <g>
 <g transform="matrix(1.0,0.0,0.0,1.0,363.75,-261.75421)">
 <g fill="rgb(0.0%,0.0%,0.0%)">
 <text style="stroke:none" transform="scale(1,-1) translate(3.75,0)" text-anchor="middle"  font-size="10"> 
V</text> 
</g>
 </g>
 </g>
 </g>
 <g stroke="rgb(0.0%,0.0%,0.0%)">
 <g>
 <g>
 <g transform="matrix(1.0,0.0,0.0,1.0,288.75,-261.75421)">
 <g fill="rgb(0.0%,0.0%,0.0%)">
 <text style="stroke:none" transform="scale(1,-1) translate(3.75,0)" text-anchor="middle"  font-size="10"> 
V</text> 
</g>
 </g>
 </g>
 </g>
 <g stroke="rgb(0.0%,0.0%,0.0%)">
 <g>
 <g>
 <g transform="matrix(1.0,0.0,0.0,1.0,206.59721,-261.75421)">
 <g fill="rgb(0.0%,0.0%,0.0%)">
 <text style="stroke:none" transform="scale(1,-1) translate(3.40279,0)" text-anchor="middle"  font-size="10"> 
P</text> 
</g>
 </g>
 </g>
 </g>
 <g stroke="rgb(0.0%,0.0%,0.0%)">
 <g>
 <g>
 <g transform="matrix(1.0,0.0,0.0,1.0,206.38889,-201.75421)">
 <g fill="rgb(0.0%,0.0%,0.0%)">
 <text style="stroke:none" transform="scale(1,-1) translate(3.61111,0)" text-anchor="middle"  font-size="10"> 
T</text> 
</g>
 </g>
 </g>
 </g>
 <g stroke="rgb(0.0%,0.0%,0.0%)">
 <g>
 <g>
 <g transform="matrix(1.0,0.0,0.0,1.0,424.09721,-216.75421)">
 <g fill="rgb(0.0%,0.0%,0.0%)">
 <text style="stroke:none" transform="scale(1,-1) translate(3.40279,0)" text-anchor="middle"  font-size="10"> 
E</text> 
</g>
 </g>
 </g>
 </g>
 <g stroke-width="1.50009pt">
 <g stroke-dasharray="none" stroke-dashoffset="0.0pt">
 <g stroke-dasharray="none" stroke-dashoffset="0.0pt">
 <g stroke-linecap="butt">
 <g stroke-linejoin="miter">
 <g stroke-width="1.50009pt">
 <g stroke-linecap="butt">
 <g stroke-linejoin="miter">
 <g stroke-dasharray="none" stroke-dashoffset="0.0pt">
 <g fill="rgb(100.0%,100.0%,100.0%)">
 <path d=" M  135.0 -225.0 C  135.0 -233.28438 128.28438 -240.0 120.0 -240.0 C  111.71562 -240.0 105.0 -233.28438 105.0 -225.0 C  105.0 -216.71562 111.71562 -210.0 120.0 -210.0 C  128.28438 -210.0 135.0 -216.71562 135.0 -225.0 Z M  120.0 -225.0  " style="stroke:none"/>
 <g stroke="rgb(0.0%,0.0%,0.0%)">
 <path d=" M  135.0 -225.0 C  135.0 -233.28438 128.28438 -240.0 120.0 -240.0 C  111.71562 -240.0 105.0 -233.28438 105.0 -225.0 C  105.0 -216.71562 111.71562 -210.0 120.0 -210.0 C  128.28438 -210.0 135.0 -216.71562 135.0 -225.0 Z M  120.0 -225.0  " style="fill:none"/>
 <g stroke-linecap="butt">
 <g stroke-linejoin="miter">
 <g stroke-dasharray="none" stroke-dashoffset="0.0pt">
 <g stroke="rgb(0.0%,0.0%,0.0%)">
 <path d=" M  90.0 -225.0 L  105.0 -225.0  " style="fill:none"/>
 <g stroke-linecap="butt">
 <g stroke-linejoin="miter">
 <g stroke-dasharray="none" stroke-dashoffset="0.0pt">
 <g fill="rgb(0.0%,0.0%,0.0%)">
 <path d=" M  100.80002 -223.20007 L  105.0 -225.0 L  100.80002 -226.50009 Z  " style="stroke:none"/>
 <g stroke="rgb(0.0%,0.0%,0.0%)">
 <path d=" M  100.80002 -223.20007 L  105.0 -225.0 L  100.80002 -226.50009 Z  " style="fill:none"/>
 <g stroke="rgb(0.0%,0.0%,0.0%)">
 <g>
 <g>
 <g transform="matrix(1.0,0.0,0.0,1.0,117.5,-231.22217)">
 <g fill="rgb(0.0%,0.0%,0.0%)">
 <text style="stroke:none" transform="scale(1,-1) translate(2.5,0)" text-anchor="middle"  font-size="10"> 
0</text> 
</g>
 </g>
 </g>
 </g>
 <g stroke-width="1.50009pt">
 <g stroke-dasharray="none" stroke-dashoffset="0.0pt">
 <g stroke-dasharray="none" stroke-dashoffset="0.0pt">
 <g stroke-linecap="butt">
 <g stroke-linejoin="miter">
 <g stroke-width="1.50009pt">
 <g stroke-linecap="butt">
 <g stroke-linejoin="miter">
 <g stroke-dasharray="none" stroke-dashoffset="0.0pt">
 <g fill="rgb(100.0%,100.0%,100.0%)">
 <path d=" M  210.0 -225.0 C  210.0 -233.28438 203.28438 -240.0 195.0 -240.0 C  186.71562 -240.0 180.0 -233.28438 180.0 -225.0 C  180.0 -216.71562 186.71562 -210.0 195.0 -210.0 C  203.28438 -210.0 210.0 -216.71562 210.0 -225.0 Z M  195.0 -225.0  " style="stroke:none"/>
 <g stroke="rgb(0.0%,0.0%,0.0%)">
 <path d=" M  210.0 -225.0 C  210.0 -233.28438 203.28438 -240.0 195.0 -240.0 C  186.71562 -240.0 180.0 -233.28438 180.0 -225.0 C  180.0 -216.71562 186.71562 -210.0 195.0 -210.0 C  203.28438 -210.0 210.0 -216.71562 210.0 -225.0 Z M  195.0 -225.0  " style="fill:none"/>
 <g stroke="rgb(0.0%,0.0%,0.0%)">
 <g>
 <g>
 <g transform="matrix(1.0,0.0,0.0,1.0,192.5,-231.22217)">
 <g fill="rgb(0.0%,0.0%,0.0%)">
 <text style="stroke:none" transform="scale(1,-1) translate(2.5,0)" text-anchor="middle"  font-size="10"> 
1</text> 
</g>
 </g>
 </g>
 </g>
 <g stroke-width="1.50009pt">
 <g stroke-dasharray="none" stroke-dashoffset="0.0pt">
 <g stroke-dasharray="none" stroke-dashoffset="0.0pt">
 <g stroke-linecap="butt">
 <g fill="rgb(0.0%,0.0%,0.0%)">
 <g stroke="rgb(0.0%,0.0%,0.0%)">
 <path d=" M  135.75165 -225.0 L  172.67812 -225.0  " style="fill:none"/>
 <g>
 <g transform="matrix(1.0,0.0,0.0,1.0,172.67812,-225.0)">
 <g>
 <path d=" M  6.57024 0.0 C  4.62346 0.365 1.46005 1.46005 -0.73003 2.7376 L  -0.73003 -2.7376 C  1.46005 -1.46005 4.62346 -0.365 6.57024 0.0  " style="stroke:none"/>
 </g>
  </g>
 </g>
 <g stroke="rgb(0.0%,0.0%,0.0%)">
 <g>
 <g>
 <g transform="matrix(1.0,0.0,0.0,1.0,153.95833,-216.75421)">
 <g fill="rgb(0.0%,0.0%,0.0%)">
 <text style="stroke:none" transform="scale(1,-1) translate(3.54167,0)" text-anchor="middle"  font-size="10"> 
B</text> 
</g>
 </g>
 </g>
 </g>
 <g stroke="rgb(0.0%,0.0%,0.0%)">
 <g>
 <g>
 <g transform="matrix(1.0,0.0,0.0,1.0,251.38889,-324.75417)">
 <g fill="rgb(0.0%,0.0%,0.0%)">
 <text style="stroke:none" transform="scale(1,-1) translate(3.61111,0)" text-anchor="middle"  font-size="10"> 
T</text> 
</g>
 </g>
 </g>
 </g>
 </g>
 </g>
 </g>
 </g>
 </g>
 </g>
 </g>
 </g>
 </g>
 </g>
 </g>
 </g>
 </g>
 </g>
 </g>
 </g>
 </g>
 </g>
 </g>
 </g>
 </g>
 </g>
 </g>
 </g>
 </g>
 </g>
 </g>
 </g>
 </g>
 </g>
 </g>
 </g>
 </g>
 </g>
 </g>
 </g>
 </g>
 </g>
 </g>
 </g>
 </g>
 </g>
 </g>
 </g>
 </g>
 </g>
 </g>
 </g>
 </g>
 </g>
 </g>
 </g>
 </g>
 </g>
 </g>
 </g>
 </g>
 </g>
 </g>
 </g>
 </g>
 </g>
 </g>
 </g>
 </g>
 </g>
 </g>
 </g>
 </g>
 </g>
 </g>
 </g>
 </g>
 </g>
 </g>
 </g>
 </g>
 </g>
 </g>
 </g>
 </g>
 </g>
 </g>
 </g>
 </g>
 </g>
 </g>
 </g>
 </g>
 </g>
 </g>
 </g>
 </g>
 </g>
 </g>
 </g>
 </g>
 </g>
 </g>
 </g>
 </g>
 </g>
 </g>
 </g>
 </g>
 </g>
 </g>
 </g>
 </g>
 </g>
 </g>
 </g>
 </g>
 </g>
 </g>
 </g>
 </g>
 </g>
 </g>
 </g>
 </g>
 </g>
 </g>
 </g>
 </g>
 </g>
 </g>
 </g>
 </g>
 </g>
 </g>
 </g>
 </g>
 </g>
 </g>
 </g>
 </g>
 </g>
 </g>
 </g>
 </g>
 </g>
 </g>
 </g>
 </g>
 </g>
 </g>
 </g>
 </g>
 </g>
 </g>
 </g>
 </g>
 </g>
 </g>
 </g>
 </g>
 </g>
 </g>
 </g>
 </g>
 </g>
 </g>
 </g>
 </g>
 </g>
 </g>
 </g>
 </g>
 </g>
 </g>
 </g>
 </g>
 </g>
 </g>
 </g>
 </g>
 </g>
 </g>
 </g>
 </g>
 </g>
 </g>
 </g>
 </g>
 </g>
 </g>
 </g>
 </g>
 </g>
 </g>
 </g>
 </g>
 </g>
 </g>
 </g>
 </g>
 </g>
 </g>
 </g>
 </g>
 
                                                                                                                     </g> 
</svg> 
